<?xml version="1.0" encoding="UTF-8"?>
<svg viewBox="215.07 145.2 236.33 226" xmlns="http://www.w3.org/2000/svg">
<path d="m349.76 297.65 13.091-33.399-38.172-14.963 1.834-4.678h23.247v-41h28v41h41v28h-41v41h-28v-15.96z" clip-rule="evenodd" fill="#fff" fill-rule="evenodd"/>
<path d="m331.86 214.52-26.069-10.219-14.962 38.172-38.172-14.962-10.219 26.069 38.172 14.962-14.962 38.172 26.069 10.219 14.962-38.172 38.172 14.962 10.219-26.069-38.172-14.962 14.962-38.172z" clip-rule="evenodd" fill="#fff" fill-rule="evenodd"/>
<path d="m215.88 225.61c0-28.166 22.833-51 51-51h133c28.167 0 51 22.834 51 51v67c0 28.167-22.833 51-51 51h-133c-28.167 0-51-22.833-51-51v-67zm51-41c-22.644 0-41 18.356-41 41v67c0 22.644 18.356 41 41 41h133c22.644 0 41-18.356 41-41v-67c0-22.644-18.356-41-41-41h-133z" clip-rule="evenodd" fill="#fff" fill-rule="evenodd"/>
</svg>
