<svg width="235" height="169" viewBox="0 0 235 169" fill="none" xmlns="http://www.w3.org/2000/svg">
<path fill-rule="evenodd" clip-rule="evenodd" d="M133.876 123.04L146.967 89.6409L108.795 74.6782L110.629 70H133.876V29H161.876V70H202.876V98H161.876V139H133.876V123.04Z" fill="#282828"/>
<path fill-rule="evenodd" clip-rule="evenodd" d="M115.981 39.9025L89.9125 29.6841L74.9498 67.8563L36.7776 52.8937L26.5592 78.9625L64.7314 93.9252L49.7687 132.097L75.8376 142.316L90.8002 104.144L128.972 119.106L139.191 93.0374L101.019 78.0747L115.981 39.9025Z" fill="#282828"/>
<path fill-rule="evenodd" clip-rule="evenodd" d="M0 51C0 22.8335 22.8335 0 51 0H184C212.167 0 235 22.8335 235 51V118C235 146.167 212.167 169 184 169H51C22.8335 169 0 146.167 0 118V51ZM51 10C28.3563 10 10 28.3563 10 51V118C10 140.644 28.3563 159 51 159H184C206.644 159 225 140.644 225 118V51C225 28.3563 206.644 10 184 10H51Z" fill="#282828"/>
</svg>
