<?xml version="1.0"?>
<svg width="235" height="169" xmlns="http://www.w3.org/2000/svg" xmlns:svg="http://www.w3.org/2000/svg">
 <g class="layer">
  <title>Layer 1</title>
  <path clip-rule="evenodd" d="m133.88,123.04l13.09,-33.4l-38.17,-14.96l1.83,-4.68l23.25,0l0,-41l28,0l0,41l41,0l0,28l-41,0l0,41l-28,0l0,-15.96z" fill="#ffffff" fill-rule="evenodd" id="svg_1" transform="matrix(1 0 0 1 0 0)"/>
  <path clip-rule="evenodd" d="m115.98,39.9l-26.07,-10.22l-14.96,38.18l-38.17,-14.97l-10.22,26.07l38.17,14.97l-14.96,38.17l26.07,10.22l14.96,-38.18l38.17,14.97l10.22,-26.07l-38.17,-14.97l14.96,-38.17z" fill="#ffffff" fill-rule="evenodd" id="svg_2" transform="matrix(1 0 0 1 0 0)"/>
  <path clip-rule="evenodd" d="m0,51c0,-28.17 22.83,-51 51,-51l133,0c28.17,0 51,22.83 51,51l0,67c0,28.17 -22.83,51 -51,51l-133,0c-28.17,0 -51,-22.83 -51,-51l0,-67zm51,-41c-22.64,0 -41,18.36 -41,41l0,67c0,22.64 18.36,41 41,41l133,0c22.64,0 41,-18.36 41,-41l0,-67c0,-22.64 -18.36,-41 -41,-41l-133,0z" fill="#ffffff" fill-rule="evenodd" id="svg_3"/>
 </g>
</svg>