<svg width="592" height="130" viewBox="0 0 592 130" fill="none" xmlns="http://www.w3.org/2000/svg">
<path d="M554.99 121.525C546.79 121.525 539.54 119.925 533.24 116.725C526.94 113.425 521.99 108.875 518.39 103.075C514.79 97.2753 512.99 90.6254 512.99 83.1254C512.99 75.7254 514.74 69.1754 518.24 63.4753C521.74 57.6753 526.49 53.1253 532.49 49.8253C538.59 46.4253 545.44 44.7253 553.04 44.7253C560.44 44.7253 566.99 46.3253 572.69 49.5254C578.49 52.6254 582.99 56.9753 586.19 62.5753C589.49 68.0753 591.14 74.3753 591.14 81.4753C591.14 82.9753 591.04 84.5254 590.84 86.1254C590.74 87.6254 590.44 89.3754 589.94 91.3754L525.29 91.6753V74.8754L579.59 74.4254L567.89 81.7754C567.79 77.6754 567.19 74.3253 566.09 71.7253C564.99 69.0253 563.39 66.9753 561.29 65.5753C559.19 64.1753 556.54 63.4753 553.34 63.4753C550.04 63.4753 547.19 64.2754 544.79 65.8754C542.39 67.4754 540.54 69.7253 539.24 72.6253C537.94 75.5253 537.29 79.0254 537.29 83.1254C537.29 87.3254 537.99 90.9253 539.39 93.9253C540.79 96.8253 542.79 99.0253 545.39 100.525C547.99 102.025 551.19 102.775 554.99 102.775C558.59 102.775 561.74 102.175 564.44 100.975C567.24 99.7754 569.74 97.9254 571.94 95.4254L585.59 109.075C581.99 113.175 577.59 116.275 572.39 118.375C567.29 120.475 561.49 121.525 554.99 121.525Z" fill="#282828"/>
<path d="M386.104 119.875V46.5254H412.204V119.875H386.104ZM432.154 119.875V77.4254C432.154 74.3254 431.204 71.9254 429.304 70.2254C427.404 68.4254 425.054 67.5254 422.254 67.5254C420.254 67.5254 418.504 67.9254 417.004 68.7254C415.504 69.5254 414.304 70.6754 413.404 72.1754C412.604 73.5754 412.204 75.3254 412.204 77.4254L402.004 73.3754C402.004 67.4754 403.304 62.4254 405.904 58.2254C408.504 54.0254 412.004 50.7754 416.404 48.4754C420.804 46.1754 425.804 45.0254 431.404 45.0254C436.404 45.0254 440.904 46.2254 444.904 48.6254C449.004 50.9254 452.254 54.1754 454.654 58.3754C457.054 62.5754 458.254 67.5254 458.254 73.2254V119.875H432.154ZM478.204 119.875V77.4254C478.204 74.3254 477.254 71.9254 475.354 70.2254C473.454 68.4254 471.104 67.5254 468.304 67.5254C466.404 67.5254 464.654 67.9254 463.054 68.7254C461.554 69.5254 460.354 70.6754 459.454 72.1754C458.654 73.5754 458.254 75.3254 458.254 77.4254L442.954 76.6754C443.154 70.0754 444.604 64.4254 447.304 59.7254C450.004 55.0254 453.704 51.4254 458.404 48.9254C463.204 46.3254 468.604 45.0254 474.604 45.0254C480.304 45.0254 485.404 46.2254 489.904 48.6254C494.404 51.0254 497.904 54.5254 500.404 59.1254C503.004 63.6254 504.304 69.0254 504.304 75.3254V119.875H478.204Z" fill="#282828"/>
<path d="M344.645 119.875V46.5253H370.895V119.875H344.645ZM357.695 37.9754C353.795 37.9754 350.545 36.6754 347.945 34.0754C345.345 31.3754 344.045 28.0253 344.045 24.0253C344.045 20.1253 345.345 16.8253 347.945 14.1253C350.545 11.4253 353.795 10.0753 357.695 10.0753C361.795 10.0753 365.095 11.4253 367.595 14.1253C370.195 16.8253 371.495 20.1253 371.495 24.0253C371.495 28.0253 370.195 31.3754 367.595 34.0754C365.095 36.6754 361.795 37.9754 357.695 37.9754Z" fill="#282828"/>
<path d="M157.497 121.525C150.597 121.525 144.447 120.175 139.047 117.475C133.747 114.675 129.547 110.825 126.447 105.925C123.447 100.925 121.947 95.2754 121.947 88.9754V46.5254H148.047V88.9754C148.047 90.9754 148.447 92.7254 149.247 94.2254C150.047 95.7254 151.147 96.8754 152.547 97.6754C153.947 98.4754 155.597 98.8754 157.497 98.8754C160.297 98.8754 162.547 97.9754 164.247 96.1754C166.047 94.3754 166.947 91.9754 166.947 88.9754V46.5254H193.047V88.9754C193.047 95.3754 191.547 101.025 188.547 105.925C185.547 110.825 181.347 114.675 175.947 117.475C170.647 120.175 164.497 121.525 157.497 121.525Z" fill="#282828"/>
<path fill-rule="evenodd" clip-rule="evenodd" d="M299.875 9.87537H271.875V50.8754H230.875V78.8754H271.875V119.875H299.875V78.8754H340.875V50.8754H299.875V9.87537Z" fill="#282828"/>
<path fill-rule="evenodd" clip-rule="evenodd" d="M89.577 13.7788L62.141 8.18742L53.9536 48.3616L13.7794 40.1742L8.18797 67.6102L48.3622 75.7976L40.1747 115.972L67.6108 121.563L75.7982 81.3891L115.972 89.5765L121.564 62.1404L81.3896 53.953L89.577 13.7788Z" fill="#282828"/>
</svg>
